<svg xmlns="http://www.w3.org/2000/svg" width="22.5" height="25.714"><path d="M0 23.3a2.411 2.411 0 002.411 2.411h17.678A2.411 2.411 0 0022.5 23.3V9.643H0zm16.071-9.84a.6.6 0 01.6-.6h2.009a.6.6 0 01.6.6v2.009a.6.6 0 01-.6.6h-2.006a.6.6 0 01-.6-.6zm0 6.429a.6.6 0 01.6-.6h2.009a.6.6 0 01.6.6V21.9a.6.6 0 01-.6.6h-2.006a.6.6 0 01-.6-.6zM9.643 13.46a.6.6 0 01.6-.6h2.009a.6.6 0 01.6.6v2.009a.6.6 0 01-.6.6h-2.006a.6.6 0 01-.6-.6zm0 6.429a.6.6 0 01.6-.6h2.009a.6.6 0 01.6.6V21.9a.6.6 0 01-.6.6h-2.006a.6.6 0 01-.6-.6zM3.214 13.46a.6.6 0 01.6-.6h2.012a.6.6 0 01.6.6v2.009a.6.6 0 01-.6.6H3.817a.6.6 0 01-.6-.6zm0 6.429a.6.6 0 01.6-.6h2.012a.6.6 0 01.6.6V21.9a.6.6 0 01-.6.6H3.817a.6.6 0 01-.6-.6zM20.089 3.214h-2.41V.8a.806.806 0 00-.8-.8h-1.611a.806.806 0 00-.8.8v2.414H8.036V.8a.806.806 0 00-.8-.8H5.625a.806.806 0 00-.8.8v2.414H2.411A2.411 2.411 0 000 5.625v2.411h22.5V5.625a2.411 2.411 0 00-2.411-2.411z" fill="#1e293b"/></svg>