<svg xmlns="http://www.w3.org/2000/svg" width="38.77" height="38.77"><g stroke-linejoin="round" fill="#00b3f3"><path d="M20.748 36.3l-.224.194-.992.863-1.077.938v-8.176H16.82v-2.481h-.892V15.29h-1.5V11.4h3.229V6.653h-1.573V4.057h7.036v2.596h-1.573v4.746h3.227v3.891h-1.5v12.348h-.89v2.481h-1.637v6.18z"/><path d="M16.733 4.707v1.296h1.573v6.046h-3.227v2.591h1.5v12.348h.89v2.481h1.636v7.398l.993-.864V29.47h1.635v-2.481h.891V14.64h1.5v-2.59h-3.227V6.003h1.573V4.707h-5.737m-.92-.919a1.3 1.3 0 01.92-.38h5.737a1.3 1.3 0 011.3 1.3v1.295a1.3 1.3 0 01-1.3 1.3h-.273v3.446h1.927a1.3 1.3 0 011.3 1.3v2.591a1.3 1.3 0 01-1.3 1.3h-.2v11.048a1.3 1.3 0 01-.89 1.234v1.247a1.3 1.3 0 01-1.3 1.3h-.336v5.234a1.3 1.3 0 01-.447.981l-.992.864a1.3 1.3 0 01-2.154-.98v-6.099h-.335a1.3 1.3 0 01-1.3-1.3v-1.247a1.3 1.3 0 01-.892-1.234V15.94h-.2a1.3 1.3 0 01-1.3-1.3v-2.59a1.296 1.296 0 011.3-1.3h1.928V7.303h-.273a1.3 1.3 0 01-1.3-1.3V4.707a1.3 1.3 0 01.38-.919z" fill="#fff"/></g><path d="M19.225 23.748l3.472-.005m-3.472-4.673l3.472-.006" stroke-linecap="round" stroke-miterlimit="10" stroke="#fff" stroke-width="1.3" fill="#00b3f3"/><path d="M24.297 11.577l-9.39.015m9.344 3.54l-9.26.02m6.848 14.819l-4.543-.017" fill="none" stroke="#fff" stroke-width="1.3"/></svg>