<svg xmlns="http://www.w3.org/2000/svg" width="157.371" height="70.255"><defs><clipPath id="a"><path class="a" d="M0-132.591h157.371v70.255H0z" transform="translate(0 132.591)"/></clipPath><style>.a{fill:#fff}</style></defs><g clip-path="url(#a)"><path class="a" d="M49.684 33.507q-.712 6.775-4.621 10.275t-13.163 3.5q-9.387 0-12.735-3.32t-2.6-10.449l1.725-16.431h9.431l-1.726 16.426a8.242 8.242 0 001.233 5.974 5.7 5.7 0 004.862 2.172 7.99 7.99 0 005.414-2.014 9.025 9.025 0 002.747-6.132l1.729-16.426h9.431zm46.978-7.53a2.578 2.578 0 00-1.294-2.435 5.377 5.377 0 00-3.169-1.018H85.91l-.754 7.173h6.376a6.12 6.12 0 003.49-.974 3.6 3.6 0 001.64-2.746m8.148 20.591H94.72l.185-8.5a4.005 4.005 0 00-.61-1.572 3.946 3.946 0 00-1.44-1.262q-1.417 0-4.728-.088t-3.533-.088l-1.21 11.511h-9.431l3.1-29.488h19.525a13.19 13.19 0 017.2 2.037 5.7 5.7 0 012.822 5.8 6.7 6.7 0 01-2.276 4.383 11.466 11.466 0 01-4.963 2.568l-.037.354a10.079 10.079 0 012.246.531 4.954 4.954 0 012.012 1.107c1.137 1.209 1.02 3.07 1.079 3.63z"/><path class="a" d="M139.637 46.569h-12.8l-11.312-19.968-2.1 19.968h-8.814l3.1-29.488h13.416l10.743 19.526 2.052-19.526h8.811zm-124.54 2.476h.519l-.42 2.52c-.018.1-.031.195-.04.285s-.013.168-.013.237a.6.6 0 00.142.424.524.524 0 00.4.152.578.578 0 00.5-.238 2.484 2.484 0 00.284-.941l.41-2.439h.524l-.42 2.492c0 .024-.01.064-.019.119a3.645 3.645 0 01-.285 1.029.976.976 0 01-.4.427 1.291 1.291 0 01-.629.143.985.985 0 01-.746-.288 1.076 1.076 0 01-.275-.775c0-.093 0-.195.015-.306s.024-.229.044-.351zm2.407 4.127l.695-4.127h.714l1 3.308.556-3.308h.519l-.684 4.127h-.68l-1.03-3.408-.571 3.408zm3.55 0l.688-4.127h.519l-.688 4.127zm1.503-4.127h.524l.464 3.453 1.552-3.453h.566l-1.906 4.127h-.62zm2.772 4.127l.688-4.127h1.833l-.1.581h-1.314l-.19 1.176h1.309l-.09.564h-1.312l-.2 1.213h1.302l-.095.593zm2.597 0l.688-4.127h.9a1.357 1.357 0 01.965.32 1.18 1.18 0 01.342.9 1.381 1.381 0 01-.313.932 1.254 1.254 0 01-.855.425l.723 1.55h-.577l-.951-2.027h.09a2.135 2.135 0 00.965-.145.778.778 0 00.263-.3.871.871 0 00.1-.4.669.669 0 00-.191-.508.752.752 0 00-.538-.181c-.065 0-.14 0-.224.006s-.175.009-.271.017l-.597 3.538zm3.148-1.317h.546v.111a.88.88 0 00.136.535.481.481 0 00.407.18.533.533 0 00.411-.191.7.7 0 00.166-.479.675.675 0 00-.082-.345 1.23 1.23 0 00-.36-.333 5.006 5.006 0 00-.134-.091 2.348 2.348 0 01-.5-.414.983.983 0 01-.176-.318 1.227 1.227 0 01-.058-.385 1.185 1.185 0 01.3-.832.993.993 0 01.765-.33.9.9 0 01.7.285 1.121 1.121 0 01.256.778v.128h-.529v-.082a.627.627 0 00-.124-.41.41.41 0 00-.334-.151.443.443 0 00-.346.166.583.583 0 00-.144.4q0 .324.607.734l.193.133a1.184 1.184 0 01.386.446 1.3 1.3 0 01.138.591 1.328 1.328 0 01-.329.914 1.052 1.052 0 01-.819.37.979.979 0 01-.8-.338 1.483 1.483 0 01-.276-.973zm2.509 1.317l.688-4.127h.519l-.688 4.127zm2.87-3.577h-.514l-.5 3.025h.624a1.368 1.368 0 001.087-.476 1.848 1.848 0 00.412-1.253 1.442 1.442 0 00-.284-.963 1.022 1.022 0 00-.825-.333m-1.616 3.577l.683-4.127h.934a1.554 1.554 0 011.209.47 1.9 1.9 0 01.424 1.325 2.494 2.494 0 01-.554 1.7 1.858 1.858 0 01-1.474.638zm5.475-1.76l-.263-1.735-.789 1.735zm-2.43 1.76l1.948-4.127h.593l.718 4.127h-.539l-.2-1.185h-1.406l-.551 1.185zm5.113-3.577h-.514l-.5 3.025h.624a1.368 1.368 0 001.087-.476 1.848 1.848 0 00.412-1.253 1.442 1.442 0 00-.284-.963 1.022 1.022 0 00-.825-.333m-1.616 3.577l.683-4.127h.934a1.554 1.554 0 011.209.47 1.9 1.9 0 01.424 1.325 2.494 2.494 0 01-.554 1.7 1.858 1.858 0 01-1.474.638zm3.504 0l.688-4.127h1.833l-.1.581H45.99l-.19 1.176h1.309l-.09.564h-1.312l-.2 1.213h1.302l-.095.593zm6.767-38.549l-.259 2.458h25.662l.259-2.458zm15.771 36.79h1.053l-.264-1.736zm-10.365-1.818h-.514l-.5 3.025h.624a1.369 1.369 0 001.09-.476 1.848 1.848 0 00.41-1.249 1.443 1.443 0 00-.285-.967 1.022 1.022 0 00-.825-.333"/><path class="a" d="M71.915 53.17h-1.716l.687-4.127h.524l-.588 3.537h1.192zm-3.151 0l-.2-1.185h-1.406l-.551 1.185h-.564l1.948-4.127h.592l.719 4.127zm-3.345-1.97a1.254 1.254 0 01-.855.425l.724 1.545h-.578l-.951-2.027h.09a2.128 2.128 0 00.965-.145.777.777 0 00.263-.3.869.869 0 00.1-.4.669.669 0 00-.191-.508.751.751 0 00-.538-.181c-.065 0-.14 0-.224.005s-.175.009-.271.017l-.593 3.541h-.519l.688-4.127h.9a1.357 1.357 0 01.965.32 1.181 1.181 0 01.342.9 1.382 1.382 0 01-.313.932m-3.406-1.576h-1.314l-.19 1.176h1.309l-.09.564H60.42l-.2 1.214h1.302l-.095.592h-1.835l.688-4.127h1.833zm-3.873 2.908a1.858 1.858 0 01-1.474.638h-1.226l.683-4.127h.934a1.554 1.554 0 011.209.47 1.894 1.894 0 01.429 1.324 2.492 2.492 0 01-.554 1.695m-3.523-2.903h-1.314l-.19 1.176h1.304l-.09.564h-1.31l-.2 1.214h1.3l-.095.592h-1.831l.688-4.127h1.838zm-3.165 0h-1.314l-.19 1.176h1.309l-.09.564H49.86l-.3 1.806h-.519l.681-4.127h1.833zm8.08-20.458h14.806l-.629 5.977H58.905L57.702 46.57H48.29l-.953 9.063h25.662l3.434-32.663H60.186zm16.568 20.427h-.514l-.5 3.025h.624a1.368 1.368 0 001.087-.476 1.848 1.848 0 00.412-1.253 1.442 1.442 0 00-.284-.963 1.022 1.022 0 00-.825-.333m-1.616 3.577l.683-4.127h.934a1.554 1.554 0 011.209.47 1.9 1.9 0 01.424 1.325 2.494 2.494 0 01-.554 1.7 1.858 1.858 0 01-1.474.638zm4.211-1.817a1.5 1.5 0 00.309.992 1.011 1.011 0 00.82.372 1.258 1.258 0 001.035-.515 2.093 2.093 0 00.405-1.326 1.521 1.521 0 00-.306-1 1.013 1.013 0 00-.823-.37 1.257 1.257 0 00-1.034.518 2.1 2.1 0 00-.4 1.334m-.537.018a3.143 3.143 0 01.152-1 2.215 2.215 0 01.448-.783 1.873 1.873 0 01.633-.472 1.867 1.867 0 01.776-.16 1.475 1.475 0 011.177.515 2.048 2.048 0 01.441 1.378 3.225 3.225 0 01-.093.787 2.5 2.5 0 01-.271.67 1.944 1.944 0 01-.691.7 1.8 1.8 0 01-.928.248 1.51 1.51 0 01-1.2-.51 2.012 2.012 0 01-.444-1.373m5.407 1.794l.688-4.127h.9a1.357 1.357 0 01.965.32 1.18 1.18 0 01.342.9 1.381 1.381 0 01-.313.932 1.254 1.254 0 01-.855.425l.723 1.55h-.577l-.951-2.027h.09a2.135 2.135 0 00.965-.145.778.778 0 00.263-.3.871.871 0 00.1-.4.669.669 0 00-.191-.508.752.752 0 00-.538-.181c-.065 0-.14 0-.224.006s-.175.009-.271.017l-.597 3.538zm3.061 0l.688-4.127h.519l-.688 4.127zm1.965-1.817a1.5 1.5 0 00.309.992 1.011 1.011 0 00.82.372 1.258 1.258 0 001.035-.515 2.093 2.093 0 00.405-1.326 1.52 1.52 0 00-.306-1 1.013 1.013 0 00-.823-.37 1.257 1.257 0 00-1.034.518 2.1 2.1 0 00-.4 1.334m-.537.018a3.143 3.143 0 01.152-1 2.215 2.215 0 01.448-.783 1.873 1.873 0 01.633-.472 1.867 1.867 0 01.776-.16 1.475 1.475 0 011.177.515 2.048 2.048 0 01.441 1.378 3.225 3.225 0 01-.093.787 2.5 2.5 0 01-.271.67 1.944 1.944 0 01-.691.7 1.8 1.8 0 01-.928.248 1.51 1.51 0 01-1.2-.51 2.012 2.012 0 01-.444-1.373m8.568.285H95.02l.09-.519h2.168a2.576 2.576 0 01-.636 1.541 1.75 1.75 0 01-1.337.57 1.515 1.515 0 01-1.212-.513 2.09 2.09 0 01-.445-1.41 2.885 2.885 0 01.145-.917 2.376 2.376 0 01.41-.76 1.852 1.852 0 01.635-.514 1.8 1.8 0 01.787-.173 1.545 1.545 0 011.063.364 1.929 1.929 0 01.566 1.07H96.7a1.245 1.245 0 00-.389-.666 1.02 1.02 0 00-.682-.233 1.274 1.274 0 00-1.036.518 2.019 2.019 0 00-.414 1.305 1.548 1.548 0 00.314 1.012 1.01 1.01 0 00.823.38 1.264 1.264 0 00.807-.29 1.56 1.56 0 00.517-.765m.87 1.509l.688-4.127h.9a1.357 1.357 0 01.965.32 1.18 1.18 0 01.342.9 1.381 1.381 0 01-.313.932 1.254 1.254 0 01-.855.425l.723 1.55h-.577l-.951-2.027h.09a2.135 2.135 0 00.965-.145.778.778 0 00.263-.3.871.871 0 00.1-.4.669.669 0 00-.191-.508.752.752 0 00-.538-.181c-.065 0-.14 0-.224.006s-.175.009-.271.017l-.597 3.538zm4.986-1.76l-.263-1.735-.789 1.735zm-2.43 1.76l1.948-4.127h.593l.718 4.127h-.539l-.2-1.185h-1.406l-.551 1.185zm3.555 0l.695-4.127h.714l1 3.308.556-3.308h.519l-.684 4.127h-.68l-1.03-3.408-.571 3.408zm5.161-3.577h-.514l-.5 3.025h.624a1.368 1.368 0 001.087-.476 1.848 1.848 0 00.412-1.253 1.442 1.442 0 00-.284-.963 1.022 1.022 0 00-.825-.333m-1.616 3.577l.683-4.127h.934a1.554 1.554 0 011.209.47 1.9 1.9 0 01.424 1.325 2.494 2.494 0 01-.554 1.7 1.858 1.858 0 01-1.474.638zm3.504 0l.688-4.127h1.833l-.1.581h-1.314l-.19 1.176h1.309l-.09.564h-1.312l-.2 1.213h1.302l-.095.593zm5.762-3.577h-.514l-.5 3.025h.624a1.368 1.368 0 001.087-.476 1.848 1.848 0 00.412-1.253 1.442 1.442 0 00-.284-.963 1.022 1.022 0 00-.825-.333m-1.616 3.577l.683-4.127h.934a1.554 1.554 0 011.209.47 1.9 1.9 0 01.424 1.325 2.494 2.494 0 01-.554 1.7 1.858 1.858 0 01-1.474.638zm4.21-1.817a1.5 1.5 0 00.309.992 1.011 1.011 0 00.82.372 1.258 1.258 0 001.035-.515 2.093 2.093 0 00.405-1.326 1.521 1.521 0 00-.306-1 1.013 1.013 0 00-.823-.37 1.257 1.257 0 00-1.034.518 2.1 2.1 0 00-.4 1.334m-.537.018a3.143 3.143 0 01.152-1 2.215 2.215 0 01.448-.783 1.873 1.873 0 01.633-.472 1.867 1.867 0 01.776-.16 1.475 1.475 0 011.177.515 2.048 2.048 0 01.441 1.378 3.225 3.225 0 01-.093.787 2.5 2.5 0 01-.271.67 1.944 1.944 0 01-.691.7 1.8 1.8 0 01-.928.248 1.51 1.51 0 01-1.2-.51 2.012 2.012 0 01-.444-1.373m5.462 1.794l.695-4.127h.714l1 3.308.556-3.308h.519l-.684 4.127h-.68l-1.03-3.408-.571 3.408zm4.257-1.817a1.5 1.5 0 00.309.992 1.011 1.011 0 00.82.372 1.258 1.258 0 001.035-.515 2.093 2.093 0 00.405-1.326 1.52 1.52 0 00-.306-1 1.013 1.013 0 00-.823-.37 1.257 1.257 0 00-1.034.518 2.1 2.1 0 00-.4 1.334m-.537.018a3.143 3.143 0 01.152-1 2.215 2.215 0 01.448-.783 1.873 1.873 0 01.633-.472 1.867 1.867 0 01.776-.16 1.475 1.475 0 011.177.515 2.048 2.048 0 01.441 1.378 3.225 3.225 0 01-.093.787 2.5 2.5 0 01-.271.67 1.944 1.944 0 01-.691.7 1.8 1.8 0 01-.928.248 1.51 1.51 0 01-1.2-.51 2.012 2.012 0 01-.444-1.373m3.855 1.794l.688-4.127h.9a1.357 1.357 0 01.965.32 1.18 1.18 0 01.342.9 1.381 1.381 0 01-.313.932 1.254 1.254 0 01-.855.425l.723 1.55h-.577l-.951-2.027h.09a2.135 2.135 0 00.965-.145.778.778 0 00.263-.3.871.871 0 00.1-.4.669.669 0 00-.191-.508.752.752 0 00-.538-.181c-.065 0-.14 0-.224.006s-.175.009-.271.017l-.597 3.538zm3.55 0l.6-3.558h-.78l.095-.57h2.043l-.094.57h-.75l-.594 3.558zm1.743 0l.688-4.127h1.833l-.1.581h-1.314l-.19 1.176h1.309l-.09.564h-1.312l-.2 1.213h1.302l-.095.593z"/></g></svg>