<svg xmlns="http://www.w3.org/2000/svg" width="145.088" height="45.482"><defs><style>.a{fill:#fff}</style></defs><path class="a" d="M53.165 6.994h2.426a1.036 1.036 0 011.036 1.037v25.892a.651.651 0 00.651.651h15.364a1.037 1.037 0 011.036 1.036v1.841a1.037 1.037 0 01-1.036 1.037H53.165a1.037 1.037 0 01-1.037-1.037V8.031a1.037 1.037 0 011.037-1.037zm45.458 23.62H82.749a.662.662 0 00-.605.395l-3.018 6.86a1.037 1.037 0 01-.949.619h-2.351a1.037 1.037 0 01-.944-1.464L88.205 7.603a1.038 1.038 0 01.945-.609h3.118a1.037 1.037 0 01.944.608l13.365 29.421a1.037 1.037 0 01-.944 1.465h-2.438a1.037 1.037 0 01-.949-.619l-3.018-6.86a.662.662 0 00-.605-.395zm-1.46-4.317l-6.009-13.65a.512.512 0 00-.937 0l-6.008 13.65a.512.512 0 00.468.718h12.017a.512.512 0 00.47-.718zm14.718-19.303h2.426a1.037 1.037 0 011.037 1.037v29.421a1.037 1.037 0 01-1.037 1.037h-2.426a1.037 1.037 0 01-1.036-1.037V8.031a1.037 1.037 0 011.036-1.037zm14.154 30.752a15.151 15.151 0 01-4.558-2.314 1.037 1.037 0 01-.3-1.262l.759-1.6a1.036 1.036 0 011.527-.417 14.933 14.933 0 003.649 1.86 16.935 16.935 0 005.781 1.012 10.411 10.411 0 005.849-1.327 4.092 4.092 0 001.934-3.532 3.48 3.48 0 00-1.057-2.632 7.075 7.075 0 00-2.609-1.552q-1.552-.54-4.387-1.215a45 45 0 01-5.736-1.71 9.467 9.467 0 01-3.734-2.632 7.028 7.028 0 01-1.552-4.792 8.106 8.106 0 011.327-4.544 9.116 9.116 0 014.027-3.239 16.326 16.326 0 016.7-1.215 21.232 21.232 0 015.489.72 15.336 15.336 0 013.869 1.578 1.041 1.041 0 01.435 1.293l-.7 1.7a1.034 1.034 0 01-1.451.513 16.31 16.31 0 00-3.231-1.326 15.81 15.81 0 00-4.409-.652 9.717 9.717 0 00-5.736 1.395 4.272 4.272 0 00-1.912 3.6 3.442 3.442 0 001.079 2.632 7.49 7.49 0 002.677 1.575 41.481 41.481 0 004.342 1.192 44.183 44.183 0 015.714 1.71 9.619 9.619 0 013.711 2.609 6.873 6.873 0 011.552 4.724 8.04 8.04 0 01-1.35 4.522 9.033 9.033 0 01-4.094 3.239 16.923 16.923 0 01-6.749 1.193 21.529 21.529 0 01-6.856-1.106zM43.761 21.02a1.723 1.723 0 00-1.721 1.726 19.3 19.3 0 01-37.44 6.6 1.721 1.721 0 00-3.234 1.178 22.745 22.745 0 0044.116-7.778 1.723 1.723 0 00-1.721-1.726z"/><path class="a" d="M43.761 21.021h-10.77l-3.887-8.688a1.726 1.726 0 00-1.584-1.017h-.052a1.714 1.714 0 00-1.555 1.131l-4.456 12.235-3.4-8.484a1.718 1.718 0 00-1.559-1.081h-.03a1.725 1.725 0 00-1.567 1.011l-2.216 4.893H1.721a1.721 1.721 0 000 3.442h12.071a1.723 1.723 0 001.567-1.011l1.009-2.231 3.569 8.916a1.713 1.713 0 001.6 1.082h.027a1.731 1.731 0 001.59-1.132l4.544-12.476 2.609 5.83a1.722 1.722 0 001.571 1.018h11.885a1.721 1.721 0 100-3.442zM21.535 31.094z"/><path class="a" d="M44.116 14.961A22.745 22.745 0 000 22.741a1.721 1.721 0 003.441 0 19.3 19.3 0 0137.44-6.6 1.721 1.721 0 103.234-1.177z"/></svg>